<?xml version="1.0" encoding="UTF-8"?>
<!DOCTYPE svg PUBLIC "-//W3C//DTD SVG 1.1//EN" "http://www.w3.org/Graphics/SVG/1.1/DTD/svg11.dtd">
<svg xmlns="http://www.w3.org/2000/svg" version="1.1" width="500px" height="500px" style="shape-rendering:geometricPrecision; text-rendering:geometricPrecision; image-rendering:optimizeQuality; fill-rule:evenodd; clip-rule:evenodd" xmlns:xlink="http://www.w3.org/1999/xlink">
<g><path style="opacity:0.657" fill="#cccccc" d="M 229.5,49.5 C 239.839,49.3335 250.172,49.5002 260.5,50C 258.913,50.8624 257.246,51.5291 255.5,52C 230.071,51.2939 205.404,55.4606 181.5,64.5C 180.328,64.0814 179.328,63.4147 178.5,62.5C 182.935,60.1861 187.602,58.3527 192.5,57C 204.831,53.7676 217.164,51.2676 229.5,49.5 Z"/></g>
<g><path style="opacity:0.612" fill="#cccccc" d="M 287.5,53.5 C 308.26,56.3677 327.927,63.2011 346.5,74C 345.07,75.4404 343.403,75.7737 341.5,75C 325.24,66.6909 308.24,60.3576 290.5,56C 289.627,54.955 288.627,54.1217 287.5,53.5 Z"/></g>
<g><path style="opacity:0.955" fill="#cccccc" d="M 229.5,55.5 C 237.196,55.1692 244.862,55.5025 252.5,56.5C 246.333,69.5 240.167,82.5 234,95.5C 226.65,97.77 219.15,99.27 211.5,100C 202.167,89 192.833,78 183.5,67C 198.392,61.0589 213.725,57.2256 229.5,55.5 Z"/></g>
<g><path style="opacity:0.981" fill="#cccccc" d="M 367.5,186.5 C 371.88,177.807 376.213,169.14 380.5,160.5C 378.61,160.297 377.11,160.963 376,162.5C 370.734,172.757 365.067,182.757 359,192.5C 358.51,193.793 358.343,195.127 358.5,196.5C 364.15,193.584 369.65,190.251 375,186.5C 371.432,198.537 367.432,210.537 363,222.5C 362.892,234.358 365.392,245.692 370.5,256.5C 380.817,257.332 391.151,257.832 401.5,258C 408.258,261.762 414.091,266.595 419,272.5C 419.667,280.5 419.667,288.5 419,296.5C 413.924,304.247 408.091,311.413 401.5,318C 399.913,318.862 398.246,319.529 396.5,320C 374.619,323.506 352.619,325.173 330.5,325C 345.773,313.727 359.773,301.06 372.5,287C 382.745,285.751 392.745,286.584 402.5,289.5C 402.439,286.27 400.772,284.437 397.5,284C 388.785,283.805 380.119,283.305 371.5,282.5C 362.038,292.794 352.038,302.628 341.5,312C 333.977,318.215 325.977,323.549 317.5,328C 318.212,329.442 319.379,330.275 321,330.5C 330.477,329.123 339.977,328.29 349.5,328C 344.385,329.538 339.385,331.372 334.5,333.5C 330.667,339.833 326.833,346.167 323,352.5C 322.333,354.5 322.333,356.5 323,358.5C 327.531,362.034 331.697,365.868 335.5,370C 329.896,379.012 327.73,388.845 329,399.5C 329.098,401.619 329.931,403.286 331.5,404.5C 332.5,404.167 333.167,403.5 333.5,402.5C 330.708,386.711 335.041,373.211 346.5,362C 353.362,356.972 360.362,352.138 367.5,347.5C 367.833,348.667 368.167,349.833 368.5,351C 363.722,374.554 358.555,398.054 353,421.5C 349.87,423.628 347.037,426.128 344.5,429C 335.041,432.511 327.208,430.345 321,422.5C 305.457,404.626 290.29,386.459 275.5,368C 277.167,366.333 278.833,364.667 280.5,363C 278.586,361.173 276.586,361.173 274.5,363C 273.12,364.925 271.62,366.759 270,368.5C 259.393,390.713 249.06,413.047 239,435.5C 230.701,443.677 222.701,443.344 215,434.5C 213.561,432.725 212.561,430.725 212,428.5C 210.156,399.093 208.99,369.76 208.5,340.5C 215.197,342.995 221.03,346.995 226,352.5C 231.914,360.66 237.581,368.993 243,377.5C 243.667,384.833 243.667,392.167 243,399.5C 240.965,402.561 239.799,405.895 239.5,409.5C 241.91,409.079 243.743,407.746 245,405.5C 245.837,402.635 246.67,399.802 247.5,397C 247.254,391.255 247.088,385.422 247,379.5C 246.667,377.5 246.333,375.5 246,373.5C 239.893,366.727 234.56,359.393 230,351.5C 224.744,344.242 218.244,338.409 210.5,334C 208.833,333.333 207.167,333.333 205.5,334C 204.948,345.423 204.948,356.923 205.5,368.5C 203.473,368.338 201.473,368.505 199.5,369C 181.133,386.369 162.466,403.369 143.5,420C 134.407,421.977 127.907,418.811 124,410.5C 123.333,403.5 123.333,396.5 124,389.5C 131.799,366.436 139.799,343.436 148,320.5C 149.103,322.629 149.603,324.963 149.5,327.5C 148.523,348.948 148.69,370.614 150,392.5C 152.09,393.791 153.424,393.124 154,390.5C 154.784,380.472 154.618,370.472 153.5,360.5C 156.148,349.916 158.148,339.249 159.5,328.5C 157.999,326.043 156.332,326.043 154.5,328.5C 153.668,320.187 153.168,311.853 153,303.5C 151.667,302.167 150.333,302.167 149,303.5C 144.404,314.954 140.404,326.62 137,338.5C 135.542,340.96 133.709,343.127 131.5,345C 123.069,350.631 114.569,356.131 106,361.5C 99.9187,357.424 94.4187,352.591 89.5,347C 92.0971,341.805 95.4305,337.138 99.5,333C 110.054,325.896 120.72,319.063 131.5,312.5C 127.12,321.193 122.787,329.86 118.5,338.5C 120.39,338.703 121.89,338.037 123,336.5C 128.266,326.243 133.933,316.243 140,306.5C 140.49,305.207 140.657,303.873 140.5,302.5C 134.85,305.416 129.35,308.749 124,312.5C 126.933,300.71 131.267,289.376 137,278.5C 137.944,270.844 138.277,263.178 138,255.5C 134.118,251.286 130.618,246.786 127.5,242C 117.5,241.667 107.5,241.333 97.5,241C 90.7421,237.238 84.9087,232.405 80,226.5C 79.3333,218.5 79.3333,210.5 80,202.5C 85.0761,194.753 90.9094,187.587 97.5,181C 99.087,180.138 100.754,179.471 102.5,179C 124.39,175.611 146.39,173.944 168.5,174C 153.227,185.273 139.227,197.94 126.5,212C 116.255,213.249 106.255,212.416 96.5,209.5C 96.561,212.73 98.2277,214.563 101.5,215C 110.215,215.195 118.881,215.695 127.5,216.5C 136.962,206.206 146.962,196.372 157.5,187C 165.023,180.785 173.023,175.451 181.5,171C 180.788,169.558 179.621,168.725 178,168.5C 168.523,169.877 159.023,170.71 149.5,171C 154.615,169.462 159.615,167.628 164.5,165.5C 168.333,159.167 172.167,152.833 176,146.5C 176.667,144.5 176.667,142.5 176,140.5C 171.469,136.966 167.303,133.132 163.5,129C 169.104,119.988 171.27,110.155 170,99.5C 169.902,97.3807 169.069,95.714 167.5,94.5C 166.5,94.8333 165.833,95.5 165.5,96.5C 168.292,112.289 163.959,125.789 152.5,137C 145.638,142.028 138.638,146.862 131.5,151.5C 131.167,150.333 130.833,149.167 130.5,148C 135.278,124.446 140.445,100.946 146,77.5C 153.138,68.5072 161.972,66.3405 172.5,71C 188.706,88.8708 204.54,107.037 220,125.5C 220.914,127.664 222.081,129.664 223.5,131.5C 221.684,132.815 220.017,134.315 218.5,136C 220.414,137.827 222.414,137.827 224.5,136C 225.88,134.075 227.38,132.241 229,130.5C 239.607,108.287 249.94,85.9532 260,63.5C 271.791,54.3113 280.791,56.6446 287,70.5C 288.755,99.9127 289.922,129.246 290.5,158.5C 283.803,156.005 277.97,152.005 273,146.5C 267.333,138.5 261.667,130.5 256,122.5C 255.333,114.833 255.333,107.167 256,99.5C 258.035,96.4388 259.201,93.1055 259.5,89.5C 257.09,89.9209 255.257,91.2542 254,93.5C 253.163,96.365 252.33,99.1983 251.5,102C 251.746,107.745 251.912,113.578 252,119.5C 252.333,121.5 252.667,123.5 253,125.5C 259.107,132.273 264.44,139.607 269,147.5C 274.256,154.758 280.756,160.591 288.5,165C 290.167,165.667 291.833,165.667 293.5,165C 294.12,153.576 294.12,142.076 293.5,130.5C 295.527,130.662 297.527,130.495 299.5,130C 317.867,112.631 336.534,95.6309 355.5,79C 364.593,77.0227 371.093,80.1893 375,88.5C 375.667,95.5 375.667,102.5 375,109.5C 367.201,132.564 359.201,155.564 351,178.5C 349.897,176.371 349.397,174.037 349.5,171.5C 349.909,164.723 350.242,157.723 350.5,150.5C 349.917,135.836 349.417,121.17 349,106.5C 346.91,105.209 345.576,105.876 345,108.5C 344.216,118.528 344.382,128.528 345.5,138.5C 342.852,149.084 340.852,159.751 339.5,170.5C 341.001,172.957 342.668,172.957 344.5,170.5C 345.194,178.861 345.861,187.194 346.5,195.5C 348.782,196.9 350.282,196.234 351,193.5C 355.154,181.882 359.154,170.215 363,158.5C 372.492,150.756 382.492,143.756 393,137.5C 399.081,141.576 404.581,146.409 409.5,152C 406.903,157.195 403.57,161.862 399.5,166C 388.946,173.104 378.28,179.937 367.5,186.5 Z"/></g>
<g><path style="opacity:0.939" fill="#cccccc" d="M 294.5,60.5 C 310.918,63.9679 326.251,69.9679 340.5,78.5C 329.991,87.8441 319.657,97.3441 309.5,107C 306.006,107.103 302.673,106.27 299.5,104.5C 298.202,92.5354 297.368,80.5354 297,68.5C 296.059,65.846 295.226,63.1794 294.5,60.5 Z"/></g>
<g><path style="opacity:0.806" fill="#cecece" d="M 131.5,86.5 C 132.376,86.3691 133.043,86.7025 133.5,87.5C 122.261,98.2373 111.095,109.237 100,120.5C 53.1559,178.394 40.8226,243.061 63,314.5C 73.2986,343.784 89.632,369.117 112,390.5C 113.301,392.365 113.635,394.365 113,396.5C 80.6668,365.843 60.3335,328.51 52,284.5C 41.2279,273.306 30.2279,262.306 19,251.5C 18.3333,250.167 18.3333,248.833 19,247.5C 30.2194,236.736 41.2194,225.736 52,214.5C 62.4144,161.638 88.9144,118.971 131.5,86.5 Z"/></g>
<g><path style="opacity:0.951" fill="#cccccc" d="M 129.5,95.5 C 130.376,95.3691 131.043,95.7025 131.5,96.5C 127.369,114.493 123.369,132.493 119.5,150.5C 120.546,154.561 122.046,158.228 124,161.5C 122.954,163.09 121.787,164.59 120.5,166C 113.921,167.489 107.254,168.489 100.5,169C 97.7558,169.803 95.0891,170.803 92.5,172C 84.9139,179.582 78.0805,187.748 72,196.5C 69.451,200.103 68.6177,203.936 69.5,208C 68.7539,211.28 68.0873,214.614 67.5,218C 67.831,222.849 68.9977,227.682 71,232.5C 72.6196,234.241 74.1196,236.075 75.5,238C 82.3566,242.866 89.19,247.699 96,252.5C 96.6752,273.211 101.175,293.044 109.5,312C 103.06,317.092 96.5598,322.259 90,327.5C 86.1661,332.497 82.8328,337.83 80,343.5C 57.452,303.215 50.1186,260.215 58,214.5C 67.5523,166.031 91.3856,126.364 129.5,95.5 Z"/></g>
<g><path style="opacity:0.807" fill="#cecece" d="M 385.5,102.5 C 418.214,132.912 438.714,170.246 447,214.5C 458.543,225.218 469.876,236.218 481,247.5C 481.667,248.833 481.667,250.167 481,251.5C 469.876,262.782 458.543,273.782 447,284.5C 436.613,337.679 409.779,380.345 366.5,412.5C 365.592,411.21 365.759,409.877 367,408.5C 434.722,353.337 459.056,283.004 440,197.5C 430.159,162.465 412.159,132.465 386,107.5C 385.506,105.866 385.34,104.199 385.5,102.5 Z"/></g>
<g><path style="opacity:0.821" fill="#cecece" d="M 377.5,134.5 C 379.764,126.709 382.431,119.042 385.5,111.5C 391.64,116.629 396.974,122.462 401.5,129C 397.65,127.836 393.65,127.502 389.5,128C 385.345,129.91 381.345,132.077 377.5,134.5 Z"/></g>
<g><path style="opacity:0.035" fill="#e6e7e6" d="M 377.5,134.5 C 376.833,135.167 376.833,135.167 377.5,134.5 Z"/></g>
<g><path style="opacity:0.95" fill="#cccccc" d="M 418.5,156.5 C 419.458,156.953 420.292,157.619 421,158.5C 441.089,198.04 447.423,239.706 440,283.5C 430.752,331.697 407.085,371.03 369,401.5C 372.012,383.777 375.512,366.11 379.5,348.5C 378.908,344.144 376.908,340.644 373.5,338C 374.693,335.474 376.526,333.64 379,332.5C 385.488,331.594 391.988,330.761 398.5,330C 401.244,329.197 403.911,328.197 406.5,327C 414.086,319.418 420.919,311.252 427,302.5C 429.549,298.897 430.382,295.064 429.5,291C 433.07,279.31 430.736,268.977 422.5,260C 418.553,257.72 414.887,255.053 411.5,252C 408.691,250.259 405.691,249.092 402.5,248.5C 401.787,226.935 397.121,206.269 388.5,186.5C 394.671,181.838 401.004,177.338 407.5,173C 411.781,167.89 415.448,162.39 418.5,156.5 Z"/></g>
<g><path style="opacity:1" fill="#f7f7f8" d="M 239.5,181.5 C 275.447,179.381 300.614,194.714 315,227.5C 323.74,259.948 314.906,286.448 288.5,307C 253.793,326.456 222.96,321.623 196,292.5C 176.697,264.139 176.697,235.806 196,207.5C 207.697,193.934 222.197,185.267 239.5,181.5 Z"/></g>
<g><path style="opacity:0.016" fill="#e9eae9" d="M 367.5,186.5 C 366.833,187.167 366.833,187.167 367.5,186.5 Z"/></g>
<g><path style="opacity:1" fill="#060625" d="M 245.5,198.5 C 244.402,197.603 244.402,196.77 245.5,196C 247.167,195.333 248.833,195.333 250.5,196C 247.711,196.125 246.045,196.958 245.5,198.5 Z"/></g>
<g><path style="opacity:1" fill="#000021" d="M 233.5,199.5 C 234.527,198.152 235.86,197.652 237.5,198C 236.437,199.188 235.103,199.688 233.5,199.5 Z"/></g>
<g><path style="opacity:1" fill="#020322" d="M 274.5,204.5 C 275.23,206.045 276.563,206.878 278.5,207C 278.167,207.333 277.833,207.667 277.5,208C 278.833,208 280.167,208 281.5,208C 282.634,209.016 282.301,209.683 280.5,210C 282.968,210.979 284.968,212.479 286.5,214.5C 287.189,215.774 288.023,215.774 289,214.5C 290.128,216.345 290.628,218.345 290.5,220.5C 292.144,220.714 293.644,220.38 295,219.5C 295.353,220.672 295.187,221.838 294.5,223C 294.944,224.762 295.444,224.595 296,222.5C 296.54,224.135 296.04,225.468 294.5,226.5C 296.877,228.228 298.544,230.561 299.5,233.5C 298.087,236.157 298.42,238.49 300.5,240.5C 299.028,243.255 299.695,245.422 302.5,247C 301.833,247.667 301.167,248.333 300.5,249C 301.75,250.975 303.083,252.141 304.5,252.5C 302.82,253.769 301.653,255.436 301,257.5C 300.346,256.304 299.846,256.304 299.5,257.5C 299.61,259.098 299.943,260.765 300.5,262.5C 298.321,264.283 298.321,266.283 300.5,268.5C 299.167,268.833 297.833,269.167 296.5,269.5C 294.639,272.566 293.305,275.899 292.5,279.5C 288.484,281.713 288.484,282.713 292.5,282.5C 291.545,284.71 290.045,285.043 288,283.5C 285.283,286.667 281.783,289.667 277.5,292.5C 274.725,294.403 272.059,295.737 269.5,296.5C 268.749,297.376 268.249,298.376 268,299.5C 267.667,298.833 267.333,298.167 267,297.5C 262.914,298.685 258.747,299.685 254.5,300.5C 253.353,300.818 252.519,301.484 252,302.5C 251.667,301.833 251.333,301.167 251,300.5C 250,301.833 249,301.833 248,300.5C 247.692,301.308 247.192,301.975 246.5,302.5C 245.369,301.249 244.036,300.249 242.5,299.5C 239.937,299.737 239.937,300.237 242.5,301C 241.975,301.692 241.308,302.192 240.5,302.5C 239.108,301.395 237.941,300.061 237,298.5C 236.617,299.056 236.117,299.389 235.5,299.5C 232.171,298.623 229.171,296.956 226.5,294.5C 225.914,294.709 225.414,295.043 225,295.5C 223.667,292.833 221.667,290.833 219,289.5C 218.026,291.878 217.359,291.544 217,288.5C 214.117,286.153 211.617,283.486 209.5,280.5C 208.817,280.863 208.15,281.196 207.5,281.5C 207.5,280.833 207.5,280.167 207.5,279.5C 207.5,278.833 207.5,278.167 207.5,277.5C 206.68,275.86 205.847,274.193 205,272.5C 204.667,272.833 204.333,273.167 204,273.5C 204.635,270.609 203.468,268.442 200.5,267C 202.16,263.777 201.494,261.277 198.5,259.5C 199.376,259.631 200.043,259.298 200.5,258.5C 199.903,255.029 199.236,251.695 198.5,248.5C 198.921,246.253 198.921,244.087 198.5,242C 200.792,240.803 201.125,239.137 199.5,237C 201.249,234.914 202.583,232.581 203.5,230C 203.167,229.667 202.833,229.333 202.5,229C 205.376,227.496 206.376,225.329 205.5,222.5C 209.5,221.833 209.5,221.167 205.5,220.5C 205.628,218.91 206.295,217.577 207.5,216.5C 207.669,217.397 208.002,218.397 208.5,219.5C 209.192,218.975 209.692,218.308 210,217.5C 211.308,218.151 212.141,217.485 212.5,215.5C 214.671,213.5 217.004,211.666 219.5,210C 218.833,209.667 218.167,209.333 217.5,209C 218.793,208.51 220.127,208.343 221.5,208.5C 221.413,205.402 221.913,205.068 223,207.5C 224.31,206.103 225.81,205.103 227.5,204.5C 230.208,203.534 232.708,202.201 235,200.5C 235.414,200.957 235.914,201.291 236.5,201.5C 239.92,200.439 242.92,199.439 245.5,198.5C 248.162,199.021 251.162,199.188 254.5,199C 253.833,198.667 253.167,198.333 252.5,198C 253.833,197.333 253.833,196.667 252.5,196C 253.5,195.333 254.5,195.333 255.5,196C 254.72,197.073 254.887,198.24 256,199.5C 258.115,200.379 260.449,200.379 263,199.5C 263.308,200.308 263.808,200.975 264.5,201.5C 265.451,200.674 266.451,200.508 267.5,201C 267.167,201.333 266.833,201.667 266.5,202C 268.329,202.273 269.829,203.107 271,204.5C 271.974,202.122 272.641,202.456 273,205.5C 273.383,204.944 273.883,204.611 274.5,204.5 Z"/></g>
<g><path style="opacity:1" fill="#000021" d="M 233.5,199.5 C 233.483,201.028 232.816,201.528 231.5,201C 232.044,200.283 232.711,199.783 233.5,199.5 Z"/></g>
<g><path style="opacity:1" fill="#000021" d="M 227.5,204.5 C 223.661,204.388 223.661,203.721 227.5,202.5C 228.463,202.97 228.463,203.637 227.5,204.5 Z"/></g>
<g><path style="opacity:1" fill="#000021" d="M 276.5,203.5 C 275.833,203.833 275.167,204.167 274.5,204.5C 274.711,202.576 275.377,202.243 276.5,203.5 Z"/></g>
<g><path style="opacity:1" fill="#000021" d="M 276.5,203.5 C 279.001,203.511 279.168,204.178 277,205.5C 276.536,204.906 276.369,204.239 276.5,203.5 Z"/></g>
<g><path style="opacity:1" fill="#000021" d="M 214.5,208.5 C 215.289,208.783 215.956,209.283 216.5,210C 212.674,212.144 212.007,211.644 214.5,208.5 Z"/></g>
<g><path style="opacity:1" fill="#0e132b" d="M 286.5,214.5 C 286.67,213.178 286.337,212.011 285.5,211C 286.5,210.333 287.5,210.333 288.5,211C 287.167,211.667 287.167,212.333 288.5,213C 287.956,213.717 287.289,214.217 286.5,214.5 Z"/></g>
<g><path style="opacity:1" fill="#000021" d="M 212.5,215.5 C 211.175,214.047 210.342,214.381 210,216.5C 209.301,214.926 209.635,213.593 211,212.5C 212.039,213.244 212.539,214.244 212.5,215.5 Z"/></g>
<g><path style="opacity:1" fill="#b7b7c0" d="M 205.5,220.5 C 209.5,221.167 209.5,221.833 205.5,222.5C 204.167,221.833 204.167,221.167 205.5,220.5 Z"/></g>
<g><path style="opacity:1" fill="#000021" d="M 300.5,240.5 C 301.238,238.24 302.238,238.073 303.5,240C 302.552,240.483 301.552,240.649 300.5,240.5 Z"/></g>
<g><path style="opacity:1" fill="#070826" d="M 197.5,248.5 C 196.711,248.217 196.044,247.717 195.5,247C 196.816,246.472 197.483,246.972 197.5,248.5 Z"/></g>
<g><path style="opacity:1" fill="#010122" d="M 197.5,248.5 C 197.833,248.5 198.167,248.5 198.5,248.5C 199.126,252.195 198.126,253.029 195.5,251C 196.756,250.583 197.423,249.75 197.5,248.5 Z"/></g>
<g><path style="opacity:1" fill="#bebec6" d="M 248.5,218.5 C 249.496,218.414 250.329,218.748 251,219.5C 258.395,229.385 265.561,239.385 272.5,249.5C 265.221,260.114 257.554,270.447 249.5,280.5C 241.446,270.447 233.779,260.114 226.5,249.5C 233.824,239.173 241.158,228.84 248.5,218.5 Z"/></g>
<g><path style="opacity:1" fill="#131730" d="M 246.5,245.5 C 252.848,246.67 259.182,248.003 265.5,249.5C 259.646,250.755 253.812,252.089 248,253.5C 244.306,252.134 240.472,251.468 236.5,251.5C 236.33,250.178 236.663,249.011 237.5,248C 240.628,247.159 243.628,246.325 246.5,245.5 Z"/></g>
<g><path style="opacity:1" fill="#0c0e29" d="M 248.5,222.5 C 249.496,222.414 250.329,222.748 251,223.5C 256.361,230.695 261.528,238.028 266.5,245.5C 265.833,245.833 265.167,246.167 264.5,246.5C 261.978,245.238 259.311,244.571 256.5,244.5C 255.864,240.219 254.364,236.219 252,232.5C 250.333,231.167 248.667,231.167 247,232.5C 244.636,236.219 243.136,240.219 242.5,244.5C 239.399,244.692 236.399,245.358 233.5,246.5C 233.167,246.167 232.833,245.833 232.5,245.5C 237.859,237.815 243.192,230.149 248.5,222.5 Z"/></g>
<g><path style="opacity:1" fill="#151832" d="M 248.5,234.5 C 249.75,234.577 250.583,235.244 251,236.5C 253.626,241.535 252.293,243.202 247,241.5C 246.865,239.078 247.365,236.745 248.5,234.5 Z"/></g>
<g><path style="opacity:1" fill="#0e112b" d="M 232.5,252.5 C 235.763,253.482 239.097,254.149 242.5,254.5C 243.51,259.519 245.844,263.853 249.5,267.5C 253.065,263.538 255.732,259.038 257.5,254C 260.738,252.632 264.072,252.299 267.5,253C 261.692,260.976 255.692,268.809 249.5,276.5C 243.006,269.019 237.339,261.019 232.5,252.5 Z"/></g>
<g><path style="opacity:1" fill="#000021" d="M 198.5,259.5 C 196.972,259.483 196.472,258.816 197,257.5C 197.717,258.044 198.217,258.711 198.5,259.5 Z"/></g>
<g><path style="opacity:1" fill="#0e112c" d="M 247.5,256.5 C 253.529,256.925 254.195,259.259 249.5,263.5C 247.267,261.431 246.6,259.097 247.5,256.5 Z"/></g>
<g><path style="opacity:1" fill="#000021" d="M 197.5,261.5 C 200.001,261.511 200.168,262.178 198,263.5C 197.536,262.906 197.369,262.239 197.5,261.5 Z"/></g>
<g><path style="opacity:1" fill="#0e112b" d="M 200.5,273.5 C 201.077,272.227 201.743,272.227 202.5,273.5C 202.03,274.463 201.363,274.463 200.5,273.5 Z"/></g>
<g><path style="opacity:1" fill="#000021" d="M 203.5,274.5 C 204.773,275.077 204.773,275.743 203.5,276.5C 202.537,276.03 202.537,275.363 203.5,274.5 Z"/></g>
<g><path style="opacity:1" fill="#000021" d="M 207.5,277.5 C 207.5,278.167 207.5,278.833 207.5,279.5C 205.067,278.452 205.067,277.786 207.5,277.5 Z"/></g>
<g><path style="opacity:1" fill="#d7d7dc" d="M 292.5,279.5 C 292.5,280.5 292.5,281.5 292.5,282.5C 288.484,282.713 288.484,281.713 292.5,279.5 Z"/></g>
<g><path style="opacity:1" fill="#070825" d="M 292.5,279.5 C 293.552,279.351 294.552,279.517 295.5,280C 294.309,280.698 293.309,281.531 292.5,282.5C 292.5,281.5 292.5,280.5 292.5,279.5 Z"/></g>
<g><path style="opacity:1" fill="#2d2f47" d="M 207.5,281.5 C 207.489,284.001 206.822,284.168 205.5,282C 206.094,281.536 206.761,281.369 207.5,281.5 Z"/></g>
<g><path style="opacity:1" fill="#000021" d="M 285.5,287.5 C 286.773,288.077 286.773,288.743 285.5,289.5C 284.537,289.03 284.537,288.363 285.5,287.5 Z"/></g>
<g><path style="opacity:1" fill="#000021" d="M 277.5,292.5 C 279.225,292.843 279.725,293.843 279,295.5C 278.487,294.473 277.987,293.473 277.5,292.5 Z"/></g>
<g><path style="opacity:1" fill="#000021" d="M 218.5,294.5 C 219.849,293.203 221.182,293.37 222.5,295C 221.181,295.195 219.847,295.028 218.5,294.5 Z"/></g>
<g><path style="opacity:1" fill="#0a0c27" d="M 270.5,297.5 C 273.125,298.466 273.125,299.466 270.5,300.5C 269.438,299.575 269.438,298.575 270.5,297.5 Z"/></g>
<g><path style="opacity:1" fill="#000021" d="M 235.5,299.5 C 235.361,301.337 234.694,301.67 233.5,300.5C 233.957,299.702 234.624,299.369 235.5,299.5 Z"/></g>
<g><path style="opacity:0.016" fill="#e9eae9" d="M 131.5,311.5 C 132.833,312.167 132.833,312.167 131.5,311.5 Z"/></g>
<g><path style="opacity:0.035" fill="#e6e7e6" d="M 121.5,363.5 C 122.833,364.167 122.833,364.167 121.5,363.5 Z"/></g>
<g><path style="opacity:0.821" fill="#cecece" d="M 121.5,364.5 C 119.236,372.291 116.569,379.958 113.5,387.5C 107.462,382.463 102.129,376.797 97.5,370.5C 97.8333,370.167 98.1667,369.833 98.5,369.5C 102.002,371.262 105.668,371.762 109.5,371C 113.655,369.09 117.655,366.923 121.5,364.5 Z"/></g>
<g><path style="opacity:0.939" fill="#cccccc" d="M 190.5,390.5 C 193.782,391.539 196.948,392.872 200,394.5C 200.8,406.493 201.466,418.493 202,430.5C 202.642,432.762 203.475,434.929 204.5,437C 188.251,434.194 172.918,428.694 158.5,420.5C 169.462,410.873 180.129,400.873 190.5,390.5 Z"/></g>
<g><path style="opacity:0.954" fill="#cccccc" d="M 283.5,397.5 C 285.903,397.393 287.736,398.393 289,400.5C 297.097,410.353 305.43,420.02 314,429.5C 314.667,430.167 314.667,430.833 314,431.5C 292.288,439.924 269.788,443.424 246.5,442C 252.962,428.91 259.295,415.743 265.5,402.5C 271.48,400.574 277.48,398.908 283.5,397.5 Z"/></g>
<g><path style="opacity:0.612" fill="#cccccc" d="M 153.5,423.5 C 154.873,423.343 156.207,423.51 157.5,424C 173.76,432.309 190.76,438.642 208.5,443C 209.5,444 210.5,445 211.5,446C 190.618,442.594 170.951,435.594 152.5,425C 153.056,424.617 153.389,424.117 153.5,423.5 Z"/></g>
<g><path style="opacity:0.665" fill="#cccccc" d="M 317.5,434.5 C 320.572,435.318 320.905,436.485 318.5,438C 292.64,447.532 265.974,451.199 238.5,449C 241.966,446.669 245.633,446.169 249.5,447.5C 273.026,446.994 295.693,442.66 317.5,434.5 Z"/></g>
</svg>
